<svg width="490" height="177" viewBox="0 0 490 177" fill="none" xmlns="http://www.w3.org/2000/svg">
<path d="M125.478 76.3722C124.801 76.3722 124.277 76.1861 123.905 75.814C123.533 75.408 123.347 74.8668 123.347 74.1902V42.5257C123.347 41.8153 123.516 41.274 123.854 40.9019C124.226 40.5298 124.751 40.3437 125.427 40.3437C126.104 40.3437 126.611 40.5298 126.95 40.9019C127.322 41.274 127.508 41.8153 127.508 42.5257V72.7186H144.152C144.761 72.7186 145.235 72.8877 145.573 73.226C145.911 73.5305 146.08 73.9703 146.08 74.5454C146.08 75.1205 145.911 75.5772 145.573 75.9155C145.235 76.22 144.761 76.3722 144.152 76.3722H125.478ZM161.206 76.8289C158.602 76.8289 156.352 76.3214 154.457 75.3066C152.597 74.2578 151.142 72.7863 150.093 70.8918C149.079 68.9973 148.571 66.7308 148.571 64.0921C148.571 61.521 149.079 59.2883 150.093 57.3938C151.108 55.4655 152.495 53.9601 154.254 52.8776C156.047 51.795 158.111 51.2537 160.445 51.2537C162.103 51.2537 163.591 51.5413 164.911 52.1164C166.23 52.6577 167.347 53.4527 168.26 54.5014C169.207 55.5501 169.918 56.8187 170.391 58.3072C170.899 59.7957 171.152 61.4703 171.152 63.3309C171.152 63.8722 171 64.2781 170.696 64.5488C170.391 64.7856 169.951 64.904 169.376 64.904H151.717V62.2145H168.412L167.6 62.8742C167.6 61.0474 167.33 59.5082 166.788 58.2565C166.247 56.9709 165.452 55.9899 164.403 55.3133C163.388 54.6367 162.103 54.2984 160.547 54.2984C158.821 54.2984 157.35 54.7044 156.132 55.5163C154.948 56.2943 154.052 57.3938 153.443 58.8147C152.834 60.2017 152.529 61.8255 152.529 63.6861V63.9906C152.529 67.1029 153.273 69.471 154.762 71.0948C156.284 72.7186 158.432 73.5305 161.206 73.5305C162.357 73.5305 163.49 73.3783 164.606 73.0738C165.757 72.7693 166.873 72.2619 167.955 71.5515C168.429 71.247 168.852 71.1117 169.224 71.1455C169.63 71.1455 169.951 71.2639 170.188 71.5007C170.425 71.7037 170.577 71.9743 170.645 72.3126C170.746 72.6171 170.713 72.9554 170.543 73.3275C170.408 73.6997 170.121 74.021 169.681 74.2917C168.564 75.1036 167.245 75.7294 165.723 76.1692C164.2 76.609 162.695 76.8289 161.206 76.8289ZM184.865 76.8289C183.173 76.8289 181.651 76.5075 180.298 75.8647C178.978 75.1882 177.93 74.2748 177.152 73.1246C176.374 71.9743 175.985 70.6888 175.985 69.268C175.985 67.4412 176.441 66.0034 177.355 64.9547C178.302 63.906 179.841 63.1617 181.972 62.722C184.137 62.2822 187.081 62.0623 190.802 62.0623H193.085V64.7517H190.853C188.112 64.7517 185.947 64.8871 184.357 65.1577C182.801 65.3945 181.702 65.8174 181.059 66.4263C180.45 67.0352 180.146 67.8979 180.146 69.0143C180.146 70.4013 180.619 71.5346 181.566 72.4141C182.547 73.2937 183.867 73.7335 185.525 73.7335C186.878 73.7335 188.062 73.4121 189.077 72.7693C190.125 72.1266 190.937 71.247 191.512 70.1306C192.121 69.0143 192.426 67.7287 192.426 66.2741V60.4892C192.426 58.3918 192.003 56.8864 191.157 55.973C190.311 55.0257 188.924 54.5521 186.996 54.5521C185.812 54.5521 184.628 54.7044 183.444 55.0088C182.26 55.3133 181.008 55.8038 179.689 56.4804C179.215 56.7172 178.809 56.8018 178.471 56.7341C178.133 56.6326 177.862 56.4466 177.659 56.1759C177.456 55.9053 177.338 55.6008 177.304 55.2625C177.27 54.8904 177.338 54.5352 177.507 54.1969C177.71 53.8586 178.014 53.588 178.42 53.385C179.909 52.6408 181.38 52.0995 182.835 51.7612C184.29 51.4229 185.677 51.2537 186.996 51.2537C189.127 51.2537 190.886 51.609 192.273 52.3194C193.661 52.996 194.692 54.0447 195.369 55.4655C196.045 56.8525 196.384 58.6455 196.384 60.8444V74.5961C196.384 75.2727 196.215 75.7971 195.876 76.1692C195.572 76.5413 195.115 76.7274 194.506 76.7274C193.863 76.7274 193.373 76.5413 193.035 76.1692C192.696 75.7971 192.527 75.2727 192.527 74.5961V70.6381H192.984C192.713 71.9236 192.189 73.0231 191.411 73.9365C190.667 74.8499 189.736 75.5603 188.62 76.0677C187.504 76.5752 186.252 76.8289 184.865 76.8289ZM206.09 76.7274C205.413 76.7274 204.889 76.5413 204.517 76.1692C204.178 75.7971 204.009 75.2727 204.009 74.5961V53.4358C204.009 52.7592 204.178 52.2517 204.517 51.9134C204.855 51.5413 205.346 51.3552 205.988 51.3552C206.631 51.3552 207.122 51.5413 207.46 51.9134C207.832 52.2517 208.018 52.7592 208.018 53.4358V57.546H207.511C208.052 55.5501 209.084 54.0109 210.606 52.9283C212.128 51.8458 214.006 51.2707 216.239 51.203C216.746 51.1692 217.152 51.2876 217.457 51.5582C217.761 51.795 217.93 52.2179 217.964 52.8268C217.998 53.4019 217.863 53.8586 217.558 54.1969C217.254 54.5352 216.78 54.7382 216.137 54.8058L215.325 54.9073C213.025 55.1103 211.249 55.8546 209.997 57.1401C208.779 58.3918 208.17 60.1171 208.17 62.316V74.5961C208.17 75.2727 207.984 75.7971 207.612 76.1692C207.274 76.5413 206.766 76.7274 206.09 76.7274ZM224.226 76.7274C223.549 76.7274 223.042 76.5413 222.703 76.1692C222.365 75.7971 222.196 75.2727 222.196 74.5961V53.4358C222.196 52.7592 222.365 52.2517 222.703 51.9134C223.042 51.5413 223.532 51.3552 224.175 51.3552C224.818 51.3552 225.308 51.5413 225.647 51.9134C226.019 52.2517 226.205 52.7592 226.205 53.4358V57.7998L225.647 57.1908C226.357 55.2287 227.507 53.7571 229.097 52.7761C230.721 51.7612 232.582 51.2537 234.679 51.2537C236.641 51.2537 238.265 51.609 239.551 52.3194C240.87 53.0298 241.851 54.1123 242.494 55.567C243.137 56.9879 243.458 58.7977 243.458 60.9967V74.5961C243.458 75.2727 243.272 75.7971 242.9 76.1692C242.561 76.5413 242.071 76.7274 241.428 76.7274C240.752 76.7274 240.227 76.5413 239.855 76.1692C239.517 75.7971 239.348 75.2727 239.348 74.5961V61.2504C239.348 58.95 238.891 57.2754 237.977 56.2267C237.098 55.1441 235.677 54.6029 233.715 54.6029C231.448 54.6029 229.639 55.3133 228.285 56.7341C226.966 58.1211 226.306 59.9818 226.306 62.316V74.5961C226.306 76.017 225.613 76.7274 224.226 76.7274ZM262.15 76.8289C259.545 76.8289 257.295 76.3214 255.401 75.3066C253.54 74.2578 252.086 72.7863 251.037 70.8918C250.022 68.9973 249.515 66.7308 249.515 64.0921C249.515 61.521 250.022 59.2883 251.037 57.3938C252.052 55.4655 253.439 53.9601 255.198 52.8776C256.991 51.795 259.055 51.2537 261.389 51.2537C263.047 51.2537 264.535 51.5413 265.854 52.1164C267.174 52.6577 268.29 53.4527 269.203 54.5014C270.151 55.5501 270.861 56.8187 271.335 58.3072C271.842 59.7957 272.096 61.4703 272.096 63.3309C272.096 63.8722 271.944 64.2781 271.639 64.5488C271.335 64.7856 270.895 64.904 270.32 64.904H252.661V62.2145H269.356L268.544 62.8742C268.544 61.0474 268.273 59.5082 267.732 58.2565C267.191 56.9709 266.396 55.9899 265.347 55.3133C264.332 54.6367 263.047 54.2984 261.49 54.2984C259.765 54.2984 258.293 54.7044 257.076 55.5163C255.892 56.2943 254.995 57.3938 254.386 58.8147C253.777 60.2017 253.473 61.8255 253.473 63.6861V63.9906C253.473 67.1029 254.217 69.471 255.706 71.0948C257.228 72.7186 259.376 73.5305 262.15 73.5305C263.3 73.5305 264.434 73.3783 265.55 73.0738C266.7 72.7693 267.816 72.2619 268.899 71.5515C269.373 71.247 269.796 71.1117 270.168 71.1455C270.574 71.1455 270.895 71.2639 271.132 71.5007C271.369 71.7037 271.521 71.9743 271.588 72.3126C271.69 72.6171 271.656 72.9554 271.487 73.3275C271.352 73.6997 271.064 74.021 270.624 74.2917C269.508 75.1036 268.189 75.7294 266.666 76.1692C265.144 76.609 263.639 76.8289 262.15 76.8289ZM287.432 76.8289C285.233 76.8289 283.305 76.3045 281.647 75.2558C280.024 74.2071 278.755 72.7355 277.842 70.8411C276.962 68.9128 276.522 66.6462 276.522 64.0413C276.522 61.4026 276.962 59.136 277.842 57.2416C278.755 55.3133 280.024 53.8417 281.647 52.8268C283.305 51.7781 285.233 51.2537 287.432 51.2537C289.665 51.2537 291.576 51.8119 293.166 52.9283C294.756 54.0447 295.822 55.5501 296.363 57.4446H295.805V42.3227C295.805 41.6461 295.974 41.1387 296.312 40.8004C296.685 40.4283 297.209 40.2422 297.886 40.2422C298.528 40.2422 299.019 40.4283 299.357 40.8004C299.729 41.1387 299.915 41.6461 299.915 42.3227V74.5961C299.915 75.2727 299.746 75.7971 299.408 76.1692C299.07 76.5413 298.562 76.7274 297.886 76.7274C297.243 76.7274 296.735 76.5413 296.363 76.1692C296.025 75.7971 295.856 75.2727 295.856 74.5961V69.7754L296.414 70.4858C295.873 72.4141 294.79 73.9534 293.166 75.1036C291.576 76.2538 289.665 76.8289 287.432 76.8289ZM288.295 73.5305C289.817 73.5305 291.153 73.1584 292.304 72.4141C293.454 71.6699 294.333 70.5873 294.942 69.1665C295.585 67.7457 295.907 66.0373 295.907 64.0413C295.907 60.9628 295.213 58.6117 293.826 56.9879C292.473 55.364 290.629 54.5521 288.295 54.5521C286.739 54.5521 285.386 54.9243 284.235 55.6685C283.119 56.3789 282.239 57.4446 281.597 58.8654C280.988 60.2524 280.683 61.9777 280.683 64.0413C280.683 67.086 281.377 69.4371 282.764 71.0948C284.151 72.7186 285.994 73.5305 288.295 73.5305ZM307.426 76.7274C306.885 76.7274 306.445 76.609 306.107 76.3722C305.802 76.1016 305.616 75.7633 305.548 75.3573C305.515 74.9175 305.616 74.427 305.853 73.8857L319.807 42.1198C320.112 41.4432 320.467 40.9696 320.873 40.6989C321.313 40.3945 321.787 40.2422 322.294 40.2422C322.801 40.2422 323.258 40.3945 323.664 40.6989C324.104 40.9696 324.459 41.4432 324.73 42.1198L338.735 73.8857C339.006 74.427 339.107 74.9175 339.04 75.3573C339.006 75.7971 338.837 76.1354 338.532 76.3722C338.228 76.609 337.805 76.7274 337.264 76.7274C336.655 76.7274 336.164 76.5752 335.792 76.2707C335.42 75.9324 335.115 75.4588 334.879 74.8499L331.123 66.1726L333.153 67.2382H311.333L313.414 66.1726L309.709 74.8499C309.405 75.4926 309.084 75.9662 308.745 76.2707C308.407 76.5752 307.967 76.7274 307.426 76.7274ZM322.243 45.4689L314.073 64.701L312.856 63.7369H331.631L330.515 64.701L322.345 45.4689H322.243ZM352.444 76.7274C351.869 76.7274 351.361 76.5752 350.921 76.2707C350.482 75.9324 350.109 75.425 349.805 74.7484L341.026 54.2477C340.789 53.7402 340.705 53.2666 340.772 52.8268C340.84 52.387 341.043 52.0318 341.381 51.7612C341.72 51.4906 342.193 51.3552 342.802 51.3552C343.343 51.3552 343.766 51.4736 344.071 51.7104C344.375 51.9472 344.646 52.3701 344.883 52.9791L353.205 73.3275H351.835L360.309 52.9791C360.546 52.3701 360.816 51.9472 361.121 51.7104C361.425 51.4736 361.865 51.3552 362.44 51.3552C362.982 51.3552 363.388 51.4906 363.658 51.7612C363.963 52.0318 364.132 52.387 364.166 52.8268C364.233 53.2328 364.166 53.6895 363.963 54.1969L355.082 74.7484C354.846 75.425 354.49 75.9324 354.017 76.2707C353.577 76.5752 353.053 76.7274 352.444 76.7274ZM379.278 76.8289C376.876 76.8289 374.795 76.3045 373.036 75.2558C371.277 74.2071 369.907 72.7355 368.926 70.8411C367.979 68.9128 367.505 66.6462 367.505 64.0413C367.505 62.0792 367.776 60.3201 368.317 58.7639C368.858 57.1739 369.653 55.8207 370.702 54.7044C371.751 53.588 372.986 52.7422 374.406 52.1671C375.861 51.5582 377.485 51.2537 379.278 51.2537C381.68 51.2537 383.76 51.7781 385.519 52.8268C387.279 53.8755 388.632 55.364 389.579 57.2923C390.56 59.1868 391.051 61.4364 391.051 64.0413C391.051 66.0034 390.78 67.7626 390.239 69.3187C389.697 70.8749 388.902 72.2281 387.854 73.3783C386.805 74.4947 385.553 75.3573 384.099 75.9662C382.678 76.5413 381.071 76.8289 379.278 76.8289ZM379.278 73.5305C380.8 73.5305 382.136 73.1584 383.287 72.4141C384.437 71.6699 385.316 70.5873 385.925 69.1665C386.568 67.7457 386.89 66.0373 386.89 64.0413C386.89 60.9628 386.196 58.6117 384.809 56.9879C383.456 55.364 381.612 54.5521 379.278 54.5521C377.722 54.5521 376.369 54.9243 375.218 55.6685C374.102 56.3789 373.222 57.4446 372.58 58.8654C371.971 60.2524 371.666 61.9777 371.666 64.0413C371.666 67.086 372.36 69.4371 373.747 71.0948C375.134 72.7186 376.977 73.5305 379.278 73.5305ZM407.678 76.8289C405.208 76.8289 403.077 76.2876 401.284 75.2051C399.491 74.1225 398.104 72.6171 397.123 70.6888C396.176 68.7267 395.702 66.4601 395.702 63.8891C395.702 61.927 395.973 60.1678 396.514 58.6117C397.055 57.0555 397.85 55.7362 398.899 54.6536C399.948 53.5372 401.199 52.6915 402.654 52.1164C404.142 51.5413 405.817 51.2537 407.678 51.2537C408.896 51.2537 410.164 51.4398 411.483 51.8119C412.803 52.1841 414.004 52.8268 415.086 53.7402C415.425 53.977 415.645 54.2646 415.746 54.6029C415.848 54.9412 415.848 55.2795 415.746 55.6178C415.645 55.9222 415.475 56.1929 415.239 56.4297C415.002 56.6326 414.697 56.751 414.325 56.7849C413.987 56.8187 413.632 56.7003 413.26 56.4297C412.38 55.7531 411.483 55.2795 410.57 55.0088C409.657 54.7382 408.777 54.6029 407.931 54.6029C406.612 54.6029 405.462 54.8228 404.481 55.2625C403.5 55.6685 402.671 56.2605 401.994 57.0386C401.318 57.8167 400.793 58.7808 400.421 59.931C400.083 61.0812 399.914 62.4175 399.914 63.9398C399.914 66.883 400.607 69.2172 401.994 70.9425C403.381 72.634 405.36 73.4798 407.931 73.4798C408.777 73.4798 409.64 73.3444 410.519 73.0738C411.433 72.8032 412.346 72.3296 413.26 71.653C413.632 71.3823 413.987 71.2639 414.325 71.2978C414.663 71.3316 414.951 71.4669 415.188 71.7037C415.425 71.9067 415.577 72.1773 415.645 72.5156C415.746 72.8539 415.746 73.1922 415.645 73.5305C415.543 73.835 415.323 74.1056 414.985 74.3424C413.902 75.222 412.718 75.8647 411.433 76.2707C410.147 76.6428 408.896 76.8289 407.678 76.8289ZM428.279 76.8289C426.588 76.8289 425.065 76.5075 423.712 75.8647C422.393 75.1882 421.344 74.2748 420.566 73.1246C419.788 71.9743 419.399 70.6888 419.399 69.268C419.399 67.4412 419.856 66.0034 420.769 64.9547C421.716 63.906 423.255 63.1617 425.387 62.722C427.552 62.2822 430.495 62.0623 434.216 62.0623H436.5V64.7517H434.267C431.527 64.7517 429.362 64.8871 427.772 65.1577C426.215 65.3945 425.116 65.8174 424.473 66.4263C423.864 67.0352 423.56 67.8979 423.56 69.0143C423.56 70.4013 424.033 71.5346 424.981 72.4141C425.962 73.2937 427.281 73.7335 428.939 73.7335C430.292 73.7335 431.476 73.4121 432.491 72.7693C433.54 72.1266 434.351 71.247 434.927 70.1306C435.536 69.0143 435.84 67.7287 435.84 66.2741V60.4892C435.84 58.3918 435.417 56.8864 434.571 55.973C433.726 55.0257 432.339 54.5521 430.41 54.5521C429.226 54.5521 428.042 54.7044 426.858 55.0088C425.674 55.3133 424.423 55.8038 423.103 56.4804C422.63 56.7172 422.224 56.8018 421.885 56.7341C421.547 56.6326 421.276 56.4466 421.073 56.1759C420.87 55.9053 420.752 55.6008 420.718 55.2625C420.684 54.8904 420.752 54.5352 420.921 54.1969C421.124 53.8586 421.429 53.588 421.835 53.385C423.323 52.6408 424.795 52.0995 426.249 51.7612C427.704 51.4229 429.091 51.2537 430.41 51.2537C432.542 51.2537 434.301 51.609 435.688 52.3194C437.075 52.996 438.107 54.0447 438.783 55.4655C439.46 56.8525 439.798 58.6455 439.798 60.8444V74.5961C439.798 75.2727 439.629 75.7971 439.291 76.1692C438.986 76.5413 438.529 76.7274 437.921 76.7274C437.278 76.7274 436.787 76.5413 436.449 76.1692C436.111 75.7971 435.941 75.2727 435.941 74.5961V70.6381H436.398C436.128 71.9236 435.603 73.0231 434.825 73.9365C434.081 74.8499 433.151 75.5603 432.034 76.0677C430.918 76.5752 429.666 76.8289 428.279 76.8289ZM457.319 76.8289C455.39 76.8289 453.767 76.4906 452.447 75.814C451.162 75.1036 450.198 74.0887 449.555 72.7693C448.912 71.4162 448.591 69.7754 448.591 67.8471V54.9073H445.191C444.616 54.9073 444.176 54.772 443.871 54.5014C443.567 54.1969 443.415 53.791 443.415 53.2835C443.415 52.7761 443.567 52.387 443.871 52.1164C444.176 51.8458 444.616 51.7104 445.191 51.7104H448.591V45.8748C448.591 45.1983 448.777 44.6908 449.149 44.3525C449.521 43.9804 450.028 43.7943 450.671 43.7943C451.314 43.7943 451.804 43.9804 452.143 44.3525C452.515 44.6908 452.701 45.1983 452.701 45.8748V51.7104H459.095C459.67 51.7104 460.11 51.8458 460.414 52.1164C460.719 52.387 460.871 52.7761 460.871 53.2835C460.871 53.791 460.719 54.1969 460.414 54.5014C460.11 54.772 459.67 54.9073 459.095 54.9073H452.701V67.4412C452.701 69.3695 453.107 70.8411 453.919 71.8559C454.731 72.837 456.05 73.3275 457.877 73.3275C458.52 73.3275 459.061 73.2599 459.501 73.1246C459.974 72.9892 460.363 72.9216 460.668 72.9216C460.972 72.8877 461.226 72.9892 461.429 73.226C461.632 73.4629 461.733 73.8688 461.733 74.4439C461.733 74.8499 461.649 75.222 461.48 75.5603C461.344 75.8986 461.091 76.1354 460.719 76.2707C460.313 76.406 459.771 76.5244 459.095 76.6259C458.452 76.7612 457.86 76.8289 457.319 76.8289ZM475.167 76.8289C472.765 76.8289 470.684 76.3045 468.925 75.2558C467.166 74.2071 465.796 72.7355 464.815 70.8411C463.868 68.9128 463.394 66.6462 463.394 64.0413C463.394 62.0792 463.665 60.3201 464.206 58.7639C464.747 57.1739 465.542 55.8207 466.591 54.7044C467.64 53.588 468.875 52.7422 470.295 52.1671C471.75 51.5582 473.374 51.2537 475.167 51.2537C477.569 51.2537 479.649 51.7781 481.408 52.8268C483.168 53.8755 484.521 55.364 485.468 57.2923C486.449 59.1868 486.94 61.4364 486.94 64.0413C486.94 66.0034 486.669 67.7626 486.128 69.3187C485.586 70.8749 484.791 72.2281 483.743 73.3783C482.694 74.4947 481.442 75.3573 479.988 75.9662C478.567 76.5413 476.96 76.8289 475.167 76.8289ZM475.167 73.5305C476.689 73.5305 478.025 73.1584 479.176 72.4141C480.326 71.6699 481.205 70.5873 481.814 69.1665C482.457 67.7457 482.778 66.0373 482.778 64.0413C482.778 60.9628 482.085 58.6117 480.698 56.9879C479.345 55.364 477.501 54.5521 475.167 54.5521C473.611 54.5521 472.257 54.9243 471.107 55.6685C469.991 56.3789 469.111 57.4446 468.469 58.8654C467.86 60.2524 467.555 61.9777 467.555 64.0413C467.555 67.086 468.249 69.4371 469.636 71.0948C471.023 72.7186 472.866 73.5305 475.167 73.5305Z" fill="#553600"/>
<path d="M184.789 115.01V94.7437H193.238C194.132 94.7437 194.95 94.934 195.692 95.3146C196.435 95.6761 197.082 96.1709 197.633 96.7988C198.185 97.4078 198.613 98.1023 198.918 98.8825C199.222 99.6437 199.375 100.424 199.375 101.223C199.375 102.327 199.127 103.383 198.632 104.391C198.138 105.381 197.443 106.19 196.549 106.818C195.654 107.427 194.608 107.731 193.409 107.731H187.358V115.01H184.789ZM187.358 105.448H193.266C193.97 105.448 194.579 105.257 195.093 104.877C195.626 104.496 196.035 103.982 196.32 103.335C196.625 102.688 196.777 101.984 196.777 101.223C196.777 100.424 196.606 99.7103 196.263 99.0823C195.921 98.4353 195.474 97.9311 194.922 97.5695C194.37 97.208 193.761 97.0272 193.095 97.0272H187.358V105.448ZM200.836 110.7C200.836 109.748 201.102 108.93 201.635 108.245C202.187 107.541 202.938 106.998 203.89 106.618C204.841 106.237 205.945 106.047 207.201 106.047C207.867 106.047 208.571 106.104 209.313 106.218C210.055 106.313 210.712 106.466 211.283 106.675V105.59C211.283 104.449 210.94 103.554 210.255 102.907C209.57 102.241 208.599 101.908 207.344 101.908C206.525 101.908 205.736 102.06 204.974 102.365C204.232 102.65 203.443 103.069 202.605 103.621L201.692 101.851C202.662 101.185 203.633 100.69 204.603 100.367C205.574 100.024 206.582 99.853 207.629 99.853C209.532 99.853 211.035 100.386 212.139 101.451C213.243 102.498 213.794 103.963 213.794 105.847V112.155C213.794 112.46 213.852 112.688 213.966 112.84C214.099 112.974 214.308 113.05 214.594 113.069V115.01C214.346 115.048 214.127 115.076 213.937 115.095C213.766 115.114 213.623 115.124 213.509 115.124C212.919 115.124 212.472 114.962 212.167 114.639C211.882 114.315 211.72 113.973 211.682 113.611L211.625 112.669C210.978 113.506 210.131 114.153 209.085 114.61C208.038 115.067 207.001 115.295 205.973 115.295C204.984 115.295 204.099 115.095 203.319 114.696C202.539 114.277 201.93 113.725 201.492 113.04C201.054 112.336 200.836 111.556 200.836 110.7ZM210.54 111.756C210.769 111.489 210.95 111.223 211.083 110.957C211.216 110.671 211.283 110.433 211.283 110.243V108.388C210.693 108.159 210.074 107.988 209.427 107.874C208.78 107.741 208.143 107.674 207.515 107.674C206.24 107.674 205.203 107.931 204.404 108.445C203.623 108.939 203.233 109.624 203.233 110.5C203.233 110.976 203.357 111.442 203.604 111.898C203.871 112.336 204.251 112.698 204.746 112.983C205.26 113.269 205.888 113.411 206.63 113.411C207.41 113.411 208.152 113.259 208.856 112.955C209.56 112.631 210.122 112.231 210.54 111.756ZM217.782 115.01V100.11H220.294V106.275H228.058V100.11H230.57V115.01H228.058V108.502H220.294V115.01H217.782ZM232.964 118.521V112.783H233.278C233.696 112.783 234.077 112.66 234.419 112.412C234.781 112.165 235.095 111.737 235.361 111.128C235.647 110.5 235.875 109.643 236.046 108.559C236.218 107.474 236.332 106.095 236.389 104.42L236.532 100.11H246.665V112.783H248.691V118.521H246.465V115.01H235.19V118.521H232.964ZM236.789 112.783H244.153V102.336H238.758L238.672 104.648C238.615 106.266 238.501 107.626 238.33 108.73C238.178 109.815 237.968 110.681 237.702 111.328C237.455 111.975 237.15 112.46 236.789 112.783ZM257.991 115.295C256.869 115.295 255.851 115.095 254.937 114.696C254.024 114.277 253.234 113.716 252.568 113.012C251.902 112.289 251.388 111.461 251.027 110.528C250.665 109.596 250.484 108.616 250.484 107.588C250.484 106.542 250.665 105.552 251.027 104.62C251.388 103.687 251.902 102.869 252.568 102.165C253.234 101.442 254.024 100.881 254.937 100.481C255.87 100.062 256.888 99.853 257.991 99.853C259.114 99.853 260.132 100.062 261.046 100.481C261.959 100.881 262.749 101.442 263.415 102.165C264.1 102.869 264.623 103.687 264.985 104.62C265.346 105.552 265.527 106.542 265.527 107.588C265.527 108.616 265.346 109.596 264.985 110.528C264.623 111.461 264.109 112.289 263.443 113.012C262.777 113.716 261.978 114.277 261.046 114.696C260.132 115.095 259.114 115.295 257.991 115.295ZM253.053 107.617C253.053 108.644 253.272 109.577 253.71 110.414C254.167 111.251 254.766 111.917 255.508 112.412C256.25 112.888 257.078 113.126 257.991 113.126C258.905 113.126 259.733 112.878 260.475 112.384C261.236 111.889 261.835 111.223 262.273 110.386C262.73 109.529 262.958 108.587 262.958 107.56C262.958 106.532 262.73 105.6 262.273 104.763C261.835 103.925 261.236 103.259 260.475 102.764C259.733 102.27 258.905 102.022 257.991 102.022C257.078 102.022 256.25 102.279 255.508 102.793C254.766 103.288 254.167 103.954 253.71 104.791C253.272 105.628 253.053 106.57 253.053 107.617ZM268.542 115.01V100.11H271.14L276.677 109.872L282.243 100.11H284.783V115.01H282.386V103.735L277.476 112.355H275.878L270.94 103.735V115.01H268.542ZM287.665 110.7C287.665 109.748 287.932 108.93 288.465 108.245C289.016 107.541 289.768 106.998 290.719 106.618C291.671 106.237 292.775 106.047 294.031 106.047C294.697 106.047 295.401 106.104 296.143 106.218C296.885 106.313 297.541 106.466 298.112 106.675V105.59C298.112 104.449 297.77 103.554 297.085 102.907C296.4 102.241 295.429 101.908 294.173 101.908C293.355 101.908 292.565 102.06 291.804 102.365C291.062 102.65 290.272 103.069 289.435 103.621L288.522 101.851C289.492 101.185 290.463 100.69 291.433 100.367C292.404 100.024 293.412 99.853 294.459 99.853C296.362 99.853 297.865 100.386 298.969 101.451C300.072 102.498 300.624 103.963 300.624 105.847V112.155C300.624 112.46 300.681 112.688 300.795 112.84C300.929 112.974 301.138 113.05 301.423 113.069V115.01C301.176 115.048 300.957 115.076 300.767 115.095C300.596 115.114 300.453 115.124 300.339 115.124C299.749 115.124 299.302 114.962 298.997 114.639C298.712 114.315 298.55 113.973 298.512 113.611L298.455 112.669C297.808 113.506 296.961 114.153 295.914 114.61C294.868 115.067 293.831 115.295 292.803 115.295C291.814 115.295 290.929 115.095 290.149 114.696C289.368 114.277 288.759 113.725 288.322 113.04C287.884 112.336 287.665 111.556 287.665 110.7ZM297.37 111.756C297.598 111.489 297.779 111.223 297.912 110.957C298.046 110.671 298.112 110.433 298.112 110.243V108.388C297.522 108.159 296.904 107.988 296.257 107.874C295.61 107.741 294.972 107.674 294.345 107.674C293.07 107.674 292.032 107.931 291.233 108.445C290.453 108.939 290.063 109.624 290.063 110.5C290.063 110.976 290.187 111.442 290.434 111.898C290.7 112.336 291.081 112.698 291.576 112.983C292.09 113.269 292.718 113.411 293.46 113.411C294.24 113.411 294.982 113.259 295.686 112.955C296.39 112.631 296.952 112.231 297.37 111.756ZM304.612 115.01V100.138H307.124V111.642L315.459 100.11H317.742V115.01H315.23V103.735L307.01 115.01H304.612ZM311.206 98.4258C309.835 98.4258 308.798 98.1023 308.094 97.4553C307.39 96.7893 307.038 95.9711 307.038 95.0006H308.808C308.808 95.5334 308.989 95.9806 309.35 96.3421C309.731 96.6847 310.349 96.8559 311.206 96.8559C312.043 96.8559 312.633 96.6942 312.975 96.3707C313.318 96.0282 313.527 95.5715 313.603 95.0006H315.373C315.373 95.9711 315.021 96.7893 314.317 97.4553C313.613 98.1023 312.576 98.4258 311.206 98.4258ZM326.408 115.21C324.962 115.21 323.735 114.943 322.726 114.41C321.737 113.858 320.975 113.097 320.443 112.127L322.498 111.213C322.84 111.822 323.325 112.298 323.953 112.641C324.6 112.983 325.381 113.154 326.294 113.154C327.379 113.154 328.235 112.917 328.863 112.441C329.491 111.965 329.805 111.328 329.805 110.528C329.805 109.805 329.548 109.225 329.034 108.787C328.539 108.33 327.835 108.093 326.922 108.074H325.409V106.418H327.008C327.407 106.418 327.759 106.323 328.064 106.133C328.387 105.923 328.635 105.647 328.806 105.305C328.996 104.962 329.091 104.582 329.091 104.163C329.091 103.497 328.853 102.964 328.378 102.565C327.902 102.146 327.188 101.937 326.237 101.937C325.457 101.937 324.8 102.089 324.267 102.393C323.754 102.698 323.335 103.155 323.012 103.763L321.099 102.736C321.575 101.842 322.26 101.147 323.154 100.652C324.068 100.138 325.133 99.8815 326.351 99.8815C327.322 99.8815 328.178 100.043 328.92 100.367C329.681 100.671 330.271 101.118 330.69 101.708C331.127 102.298 331.346 103.012 331.346 103.849C331.346 104.553 331.175 105.21 330.832 105.819C330.509 106.409 330.024 106.856 329.377 107.16C330.271 107.427 330.956 107.893 331.432 108.559C331.908 109.206 332.145 109.977 332.145 110.871C332.145 111.784 331.898 112.564 331.403 113.211C330.909 113.858 330.233 114.353 329.377 114.696C328.52 115.038 327.531 115.21 326.408 115.21ZM341.757 115.295C340.634 115.295 339.607 115.095 338.674 114.696C337.761 114.277 336.962 113.716 336.277 113.012C335.611 112.289 335.087 111.461 334.707 110.528C334.345 109.596 334.164 108.606 334.164 107.56C334.164 106.152 334.488 104.867 335.135 103.706C335.782 102.546 336.676 101.613 337.818 100.909C338.979 100.205 340.301 99.853 341.785 99.853C343.289 99.853 344.592 100.215 345.696 100.938C346.819 101.642 347.684 102.574 348.293 103.735C348.921 104.877 349.235 106.114 349.235 107.446C349.235 107.636 349.226 107.826 349.207 108.017C349.207 108.188 349.197 108.321 349.178 108.416H336.819C336.895 109.387 337.161 110.252 337.618 111.014C338.094 111.756 338.703 112.346 339.445 112.783C340.187 113.202 340.986 113.411 341.843 113.411C342.756 113.411 343.612 113.183 344.411 112.726C345.23 112.27 345.791 111.67 346.096 110.928L348.265 111.527C347.941 112.25 347.456 112.897 346.809 113.468C346.181 114.039 345.43 114.486 344.554 114.81C343.698 115.133 342.765 115.295 341.757 115.295ZM336.733 106.675H346.895C346.819 105.704 346.543 104.848 346.067 104.106C345.591 103.364 344.982 102.783 344.24 102.365C343.498 101.946 342.68 101.737 341.785 101.737C340.91 101.737 340.101 101.946 339.359 102.365C338.617 102.783 338.008 103.364 337.532 104.106C337.076 104.848 336.809 105.704 336.733 106.675ZM360.048 115.295C358.83 115.295 357.746 114.991 356.794 114.382C355.843 113.773 355.091 113.002 354.539 112.07V121.09H352.028V100.11H354.254V102.907C354.844 101.994 355.615 101.261 356.566 100.709C357.517 100.138 358.555 99.853 359.677 99.853C360.705 99.853 361.647 100.062 362.503 100.481C363.359 100.9 364.101 101.47 364.729 102.194C365.357 102.917 365.843 103.744 366.185 104.677C366.547 105.59 366.728 106.551 366.728 107.56C366.728 108.968 366.442 110.262 365.871 111.442C365.319 112.622 364.539 113.563 363.531 114.268C362.522 114.953 361.361 115.295 360.048 115.295ZM359.278 113.126C360.02 113.126 360.686 112.974 361.276 112.669C361.885 112.346 362.398 111.927 362.817 111.413C363.255 110.88 363.588 110.281 363.816 109.615C364.044 108.949 364.159 108.264 364.159 107.56C364.159 106.818 364.025 106.114 363.759 105.448C363.512 104.782 363.15 104.192 362.674 103.678C362.218 103.164 361.675 102.764 361.047 102.479C360.438 102.175 359.772 102.022 359.049 102.022C358.593 102.022 358.117 102.108 357.622 102.279C357.146 102.45 356.69 102.698 356.252 103.021C355.814 103.326 355.443 103.678 355.139 104.077C354.834 104.477 354.635 104.905 354.539 105.362V109.615C354.825 110.262 355.205 110.852 355.681 111.385C356.157 111.917 356.709 112.346 357.337 112.669C357.965 112.974 358.612 113.126 359.278 113.126ZM383.625 115.295C382.502 115.295 381.474 115.095 380.542 114.696C379.629 114.277 378.829 113.716 378.144 113.012C377.478 112.289 376.955 111.461 376.574 110.528C376.213 109.596 376.032 108.606 376.032 107.56C376.032 106.152 376.356 104.867 377.003 103.706C377.65 102.546 378.544 101.613 379.686 100.909C380.846 100.205 382.169 99.853 383.653 99.853C385.157 99.853 386.46 100.215 387.564 100.938C388.686 101.642 389.552 102.574 390.161 103.735C390.789 104.877 391.103 106.114 391.103 107.446C391.103 107.636 391.094 107.826 391.075 108.017C391.075 108.188 391.065 108.321 391.046 108.416H378.687C378.763 109.387 379.029 110.252 379.486 111.014C379.962 111.756 380.571 112.346 381.313 112.783C382.055 113.202 382.854 113.411 383.71 113.411C384.624 113.411 385.48 113.183 386.279 112.726C387.098 112.27 387.659 111.67 387.963 110.928L390.133 111.527C389.809 112.25 389.324 112.897 388.677 113.468C388.049 114.039 387.297 114.486 386.422 114.81C385.566 115.133 384.633 115.295 383.625 115.295ZM378.601 106.675H388.763C388.686 105.704 388.411 104.848 387.935 104.106C387.459 103.364 386.85 102.783 386.108 102.365C385.366 101.946 384.548 101.737 383.653 101.737C382.778 101.737 381.969 101.946 381.227 102.365C380.485 102.783 379.876 103.364 379.4 104.106C378.944 104.848 378.677 105.704 378.601 106.675ZM392.24 118.521V112.783H392.554C392.972 112.783 393.353 112.66 393.696 112.412C394.057 112.165 394.371 111.737 394.637 111.128C394.923 110.5 395.151 109.643 395.323 108.559C395.494 107.474 395.608 106.095 395.665 104.42L395.808 100.11H405.941V112.783H407.967V118.521H405.741V115.01H394.466V118.521H392.24ZM396.065 112.783H403.429V102.336H398.034L397.949 104.648C397.891 106.266 397.777 107.626 397.606 108.73C397.454 109.815 397.244 110.681 396.978 111.328C396.731 111.975 396.426 112.46 396.065 112.783ZM410.731 115.01V100.11H413.243V105.191H416.268C418.019 105.191 419.342 105.638 420.236 106.532C421.149 107.408 421.606 108.559 421.606 109.986C421.606 110.937 421.406 111.794 421.007 112.555C420.626 113.316 420.055 113.916 419.294 114.353C418.533 114.791 417.581 115.01 416.44 115.01H410.731ZM413.243 113.04H416.097C416.801 113.04 417.363 112.907 417.781 112.641C418.219 112.355 418.542 111.984 418.752 111.527C418.961 111.071 419.066 110.576 419.066 110.043C419.066 109.529 418.971 109.054 418.78 108.616C418.59 108.178 418.276 107.826 417.838 107.56C417.401 107.293 416.801 107.16 416.04 107.16H413.243V113.04ZM424.175 115.01V100.138H426.687V115.01H424.175Z" fill="#777F00"/>
<path d="M66.5494 45.5925C66.5494 45.5925 88.9338 30.5499 93.5666 30.4514C98.2012 30.3528 88.5342 60.1986 88.5342 60.1986L72.8439 60.2479L66.5494 45.5925Z" fill="#BED966" stroke="#BEB455" stroke-width="2.11223" stroke-miterlimit="10"/>
<path d="M59.9583 46.6489C59.9583 46.6489 37.5739 31.6063 32.9411 31.5077C28.3065 31.4091 37.9735 61.255 37.9735 61.255L53.6638 61.3043L59.9583 46.6489Z" fill="#BED966" stroke="#BEB455" stroke-width="2.11223" stroke-miterlimit="10"/>
<path d="M74.1042 47.2612C74.1042 47.2612 82.5531 38.1082 85.7215 39.8684C88.8898 41.6286 86.6016 52.3658 83.0812 55.0061C79.5608 57.6463 74.1042 47.2612 74.1042 47.2612Z" fill="#8B4B00" stroke="#7A2B00" stroke-width="0.528058" stroke-miterlimit="10"/>
<path d="M51.2146 47.3017C51.2146 47.3017 42.7657 38.1487 39.5973 39.9089C36.429 41.669 38.7172 52.4062 42.2376 55.0465C45.758 57.6868 51.2146 47.3017 51.2146 47.3017Z" fill="#8B4B00" stroke="#7A2B00" stroke-width="0.528058" stroke-miterlimit="10"/>
<path d="M87.3056 108.604C87.3056 108.604 92.3908 127.035 107.636 136.03C110.331 137.619 113.342 138.915 116.701 139.759C139.055 145.392 162.642 130.606 168.627 116.173C174.611 101.739 171.267 83.2572 162.994 86.7776C154.721 90.298 164.578 103.675 153.313 114.589C142.048 125.502 124.27 132.367 111.42 124.094C107.31 120.946 103.88 117.542 101.035 114.145C96.082 108.231 92.9031 102.338 91.002 97.8668C88.0097 90.826 87.3056 108.604 87.3056 108.604Z" stroke="#BEB455" stroke-width="0.704078" stroke-miterlimit="10"/>
<path d="M87.3056 108.604C87.3056 108.604 92.3908 127.035 107.636 136.03C110.331 137.619 113.342 138.915 116.701 139.759C139.055 145.392 162.642 130.606 168.627 116.173C174.611 101.739 171.267 83.2572 162.994 86.7776C154.721 90.298 164.578 103.675 153.313 114.589C142.048 125.502 124.27 132.367 111.42 124.094C107.31 120.946 103.88 117.542 101.035 114.145C96.082 108.231 92.9031 102.338 91.002 97.8668C88.0097 90.826 87.3056 108.604 87.3056 108.604Z" fill="#BED966"/>
<mask id="mask0_2_102" style="mask-type:alpha" maskUnits="userSpaceOnUse" x="87" y="86" width="85" height="55">
<path d="M87.3056 108.604C87.3056 108.604 92.3908 127.035 107.636 136.03C110.331 137.619 113.342 138.915 116.701 139.759C139.055 145.392 162.642 130.606 168.627 116.173C174.611 101.739 171.267 83.2572 162.994 86.7776C154.721 90.298 164.578 103.675 153.313 114.589C142.048 125.502 124.27 132.367 111.42 124.094C107.31 120.946 103.88 117.542 101.035 114.145C96.082 108.231 92.9031 102.338 91.002 97.8668C88.0097 90.826 87.3056 108.604 87.3056 108.604Z" fill="#BED966"/>
</mask>
<g mask="url(#mask0_2_102)">
<path d="M99.979 136.063C99.979 136.063 96.4586 119.517 113.18 111.42Z" fill="#BED966"/>
<path d="M99.979 136.063C99.979 136.063 96.4586 119.517 113.18 111.42" stroke="#8B4B00" stroke-width="3.52039" stroke-miterlimit="10"/>
<path d="M108.78 139.407C108.78 139.407 103.499 127.086 120.045 118.285Z" fill="#BED966"/>
<path d="M108.78 139.407C108.78 139.407 103.499 127.086 120.045 118.285" stroke="#8B4B00" stroke-width="3.52039" stroke-miterlimit="10"/>
<path d="M124.622 142.928C124.622 142.928 113.004 139.935 123.214 118.461Z" fill="#BED966"/>
<path d="M124.622 142.928C124.622 142.928 113.004 139.935 123.214 118.461" stroke="#8B4B00" stroke-width="3.52039" stroke-miterlimit="10"/>
<path d="M138.879 141.872C138.879 141.872 127.438 140.112 128.67 114.765Z" fill="#BED966"/>
<path d="M138.879 141.872C138.879 141.872 127.438 140.112 128.67 114.765" stroke="#8B4B00" stroke-width="3.52039" stroke-miterlimit="10"/>
<path d="M149.616 138.351C149.616 138.351 135.359 135.007 140.287 108.252Z" fill="#BED966"/>
<path d="M149.616 138.351C149.616 138.351 135.359 135.007 140.287 108.252" stroke="#8B4B00" stroke-width="3.52039" stroke-miterlimit="10"/>
<path d="M162.818 132.191C162.818 132.191 144.336 131.311 149.264 106.668Z" fill="#BED966"/>
<path d="M162.818 132.191C162.818 132.191 144.336 131.311 149.264 106.668" stroke="#8B4B00" stroke-width="3.52039" stroke-miterlimit="10"/>
</g>
<path opacity="0.39" d="M97.9671 110.188C97.9671 110.188 101.732 114.816 103.232 116.637C104.731 118.459 107.435 120.885 108.372 121.608C109.308 122.333 104.731 131.839 109.993 137.299C110.662 137.994 97.4267 130.082 94.7424 123.743C92.0581 117.405 95.2264 110.892 95.2264 110.892L97.9671 110.188Z" fill="#C2885A" stroke="#BEB455" stroke-width="0.0440049" stroke-miterlimit="10"/>
<path d="M67.9963 100.643C67.9963 100.643 71.089 102.369 73.379 106.986Z" fill="#5F0900"/>
<path d="M67.9963 100.643C67.9963 100.643 71.089 102.369 73.379 106.986" stroke="#CEA13C" stroke-width="1.40816" stroke-miterlimit="10" stroke-linecap="round"/>
<path d="M74.1041 108.78C74.1041 108.78 74.6322 110.364 74.1041 111.42Z" fill="#5F0900"/>
<path d="M74.1041 108.78C74.1041 108.78 74.6322 110.364 74.1041 111.42" stroke="#CEA13C" stroke-width="1.40816" stroke-miterlimit="10" stroke-linecap="round"/>
<path d="M64.4231 36.26C64.4231 36.26 86.4255 32.7396 95.5786 85.5454C101.739 117.053 93.2903 141.168 66.7114 142.928C37.6682 142.4 22.5305 120.749 29.9233 82.3771C41.8926 44.0048 50.3416 36.26 64.4231 36.26Z" fill="#BED966"/>
<mask id="mask1_2_102" style="mask-type:alpha" maskUnits="userSpaceOnUse" x="28" y="36" width="70" height="107">
<path d="M64.4231 36.26C64.4231 36.26 86.4255 32.7396 95.5785 85.5454C101.739 117.053 93.2903 141.168 66.7114 142.928C37.6681 142.4 22.5305 120.749 29.9233 82.3771C41.8926 44.0048 50.3415 36.26 64.4231 36.26Z" fill="#BED966"/>
</mask>
<g mask="url(#mask1_2_102)">
<path d="M34.0597 62.3989C34.0597 62.3989 34.9398 118.549 45.1489 129.99C55.3581 141.432 74.5442 144.952 82.8171 142.84C91.09 140.728 76.8324 153.929 76.8324 153.929L21.3863 145.128L11.7052 118.373C11.7052 118.373 9.24097 93.3783 9.41699 92.6742C9.59301 91.9702 15.0496 75.7764 15.0496 75.7764L22.6184 59.5826L34.0597 62.3989Z" fill="#C2CC5A" stroke="#C2CC5A" stroke-width="1.93621" stroke-miterlimit="10"/>
<path d="M64.4231 36.26C64.4231 36.26 86.4255 32.7396 95.5786 85.5454C101.739 117.053 93.2903 141.168 66.7114 142.928C37.6682 142.4 22.5305 120.749 29.9233 82.3771C41.8926 44.0048 50.3416 36.26 64.4231 36.26Z" stroke="#BEB455" stroke-width="1.93621" stroke-miterlimit="10"/>
</g>
<path d="M62.2229 126.646C70.5832 126.646 77.3605 119.869 77.3605 111.508C77.3605 103.148 70.5832 96.3706 62.2229 96.3706C53.8626 96.3706 47.0852 103.148 47.0852 111.508C47.0852 119.869 53.8626 126.646 62.2229 126.646Z" fill="#8B4B00"/>
<mask id="mask2_2_102" style="mask-type:alpha" maskUnits="userSpaceOnUse" x="47" y="96" width="31" height="31">
<path d="M62.2229 126.646C70.5832 126.646 77.3605 119.869 77.3605 111.508C77.3605 103.148 70.5832 96.3706 62.2229 96.3706C53.8626 96.3706 47.0852 103.148 47.0852 111.508C47.0852 119.869 53.8626 126.646 62.2229 126.646Z" fill="#8B4B00"/>
</mask>
<g mask="url(#mask2_2_102)">
<path d="M64.5111 95.6665C64.5111 95.6665 48.6694 100.595 49.7255 121.541C50.4419 135.741 40.2204 97.7787 40.2204 97.7787L61.8708 91.266L64.5111 95.6665Z" fill="#7A2B00" stroke="#7A2B00" stroke-width="1.23214" stroke-miterlimit="10"/>
<path d="M62.2229 126.646C70.5832 126.646 77.3605 119.869 77.3605 111.508C77.3605 103.148 70.5832 96.3706 62.2229 96.3706C53.8626 96.3706 47.0852 103.148 47.0852 111.508C47.0852 119.869 53.8626 126.646 62.2229 126.646Z" stroke="#7A2B00" stroke-width="1.23214" stroke-miterlimit="10"/>
</g>
<path d="M67.4066 72.1028C67.4066 72.1028 74.3752 57.9808 86.1157 69.2759C86.1175 69.2759 75.6989 68.2832 67.4066 72.1028Z" fill="#FFF0FF"/>
<path d="M80.601 65.4317C80.5201 65.4317 80.4409 65.4211 80.3617 65.3947C80.0219 65.2786 79.7033 65.1589 79.3566 65.0603C78.9852 64.9547 78.6015 64.9124 78.2318 64.8051C78.1632 64.7857 78.1016 64.7593 78.0452 64.7294C76.9293 64.7787 75.7834 65.0568 74.766 65.3419C73.6694 65.6482 72.7189 66.4227 71.6469 66.7677C71.529 67.0317 71.4656 67.3081 71.4656 67.5932C71.4656 68.5877 72.2348 69.4731 73.43 70.054C73.4423 70.0487 73.4547 70.0452 73.467 70.0399C73.643 69.9765 73.8137 69.9536 74.0021 69.9307C74.0637 69.9237 74.1271 69.929 74.1887 69.9431C74.5601 69.7301 74.9755 69.6033 75.4155 69.6262C75.5739 69.6333 75.7165 69.679 75.8415 69.7494C76.5913 69.6526 77.3552 69.6174 78.1086 69.4925C79.1559 69.3182 80.2648 69.1351 81.3474 69.1439C81.7786 68.6845 82.0286 68.1565 82.0286 67.5914C82.025 66.7554 81.4829 65.9967 80.601 65.4317Z" fill="#7CA335"/>
<path d="M75.4859 69.6914C75.7675 69.6333 76.0544 69.584 76.3396 69.5277C76.9909 69.3974 77.6069 69.1792 78.2775 69.1616C78.3673 69.1598 78.4483 69.1686 78.524 69.188C79.0538 68.7391 79.3847 68.1125 79.3847 67.4172C79.3847 66.0566 78.1244 64.9529 76.5684 64.9529C75.0124 64.9529 73.7521 66.0566 73.7521 67.4172C73.7521 68.4416 74.4685 69.32 75.4859 69.6914Z" fill="#001700"/>
<path d="M67.3345 72.006C67.3345 72.006 74.3031 57.884 86.0436 69.1791C86.0436 69.1809 75.625 68.1881 67.3345 72.006Z" stroke="black" stroke-width="0.528058" stroke-miterlimit="10"/>
<path d="M57.2151 72.1028C57.2151 72.1028 50.2465 57.9808 38.506 69.2759C38.5043 69.2759 48.9229 68.2832 57.2151 72.1028Z" fill="#FFF0FF"/>
<path d="M44.0207 65.4318C44.1017 65.4318 44.1809 65.4212 44.2601 65.3948C44.5998 65.2786 44.9184 65.1589 45.2652 65.0603C45.6366 64.9547 46.0203 64.9125 46.3899 64.8051C46.4586 64.7858 46.5202 64.7594 46.5765 64.7294C47.6925 64.7787 48.8384 65.0568 49.8558 65.342C50.9524 65.6483 51.9029 66.4227 52.9748 66.7677C53.0928 67.0318 53.1561 67.3081 53.1561 67.5933C53.1561 68.5878 52.3869 69.4732 51.1917 70.054C51.1794 70.0487 51.1671 70.0452 51.1548 70.0399C50.9788 69.9766 50.808 69.9537 50.6197 69.9308C50.5581 69.9238 50.4947 69.929 50.4331 69.9431C50.0617 69.7301 49.6463 69.6034 49.2062 69.6263C49.0478 69.6333 48.9053 69.6791 48.7803 69.7495C48.0304 69.6527 47.2665 69.6175 46.5132 69.4925C45.4658 69.3183 44.3569 69.1352 43.2744 69.144C42.8432 68.6846 42.5932 68.1565 42.5932 67.5915C42.5967 66.7554 43.1389 65.9968 44.0207 65.4318Z" fill="#7CA335"/>
<path d="M47.8773 64.9512C46.3213 64.9512 45.061 66.0548 45.061 67.4154C45.061 68.2339 45.5187 68.9574 46.2227 69.4062C46.3583 69.3781 46.5008 69.3728 46.6434 69.3921C47.2524 69.4766 47.8509 69.6016 48.4687 69.6122C48.6307 69.6139 48.768 69.6527 48.8824 69.716C49.9403 69.3622 50.6936 68.4663 50.6936 67.4154C50.6936 66.0548 49.4333 64.9512 47.8773 64.9512Z" fill="#001700"/>
<path d="M57.2873 72.006C57.2873 72.006 50.3187 57.884 38.5782 69.1791C38.5782 69.1809 48.9968 68.1881 57.2873 72.006Z" stroke="black" stroke-width="0.528058" stroke-miterlimit="10"/>
<path d="M78.7406 67.1267C78.9219 66.9278 79.1137 66.8098 79.3109 66.7166C79.508 66.6268 79.7087 66.5687 79.9146 66.5405C80.1206 66.5106 80.33 66.5106 80.543 66.5423C80.7578 66.5775 80.976 66.6374 81.2048 66.7799C81.3263 66.8556 81.3633 67.014 81.2876 67.1337C81.2805 67.146 81.27 67.1584 81.2612 67.1707C81.0799 67.3713 80.888 67.491 80.6909 67.5843C80.4937 67.6741 80.2931 67.7322 80.0871 67.7621C79.8812 67.792 79.6717 67.7938 79.4587 67.7621C79.244 67.7287 79.0257 67.6688 78.7969 67.528C78.6737 67.4523 78.635 67.2904 78.7106 67.1672C78.7195 67.1531 78.73 67.139 78.7406 67.1267Z" fill="white"/>
<path d="M50.7306 68.4046C50.9119 68.2057 51.1038 68.0878 51.3009 67.9945C51.4981 67.9047 51.6987 67.8467 51.9047 67.8185C52.1106 67.7886 52.3201 67.7886 52.533 67.8203C52.7478 67.8555 52.9661 67.9153 53.1949 68.0579C53.3163 68.1336 53.3533 68.292 53.2776 68.4117C53.2706 68.424 53.26 68.4363 53.2512 68.4486C53.0699 68.6493 52.878 68.769 52.6809 68.8623C52.4838 68.9521 52.2831 69.0101 52.0772 69.0401C51.8712 69.07 51.6618 69.0718 51.4488 69.0401C51.234 69.0066 51.0158 68.9468 50.7869 68.806C50.6637 68.7303 50.625 68.5683 50.7007 68.4451C50.7095 68.431 50.72 68.417 50.7306 68.4046Z" fill="white"/>
<path d="M76.5632 77.6105C77.0613 77.1793 77.5806 76.7991 78.1139 76.4294C78.6455 76.0598 79.1929 75.7148 79.7491 75.3839C80.8616 74.7238 82.0092 74.1253 83.1868 73.5937C85.5384 72.5218 88.0009 71.7068 90.5074 71.0925C93.0192 70.4976 95.5768 70.0998 98.1502 69.929C100.724 69.7512 103.308 69.7688 105.876 69.9677C103.304 69.7935 100.722 69.7988 98.1537 69.9977C95.5856 70.1895 93.0368 70.6102 90.5391 71.2245C88.0467 71.86 85.6018 72.6925 83.2713 73.7803C82.106 74.3207 80.9689 74.9244 79.8723 75.5898C79.3231 75.9225 78.7845 76.271 78.26 76.6406C77.7372 77.0085 77.2197 77.3975 76.748 77.8129L76.7445 77.8182C76.6881 77.8693 76.6001 77.8622 76.5508 77.8059C76.4998 77.7496 76.5051 77.6616 76.5632 77.6105Z" fill="#4D3615"/>
<path d="M78.6542 79.9111C79.2527 79.6365 79.8565 79.4147 80.4725 79.2087C81.0868 79.0028 81.7082 78.8215 82.3331 78.6596C83.5846 78.3339 84.8537 78.0805 86.1333 77.8956C88.6909 77.5207 91.2819 77.4239 93.8606 77.5295C96.4375 77.6562 99.0056 77.9854 101.524 78.5399C104.045 79.0855 106.522 79.8213 108.935 80.726C106.515 79.8424 104.031 79.1295 101.51 78.6068C98.9898 78.0769 96.4252 77.7707 93.8553 77.6668C91.2854 77.5823 88.705 77.7038 86.165 78.0998C84.8941 78.2934 83.6356 78.5592 82.3964 78.8919C81.7768 79.0591 81.1625 79.2439 80.5553 79.4534C79.9515 79.6611 79.346 79.8899 78.7757 80.1592L78.7704 80.161C78.7018 80.1927 78.619 80.1645 78.5874 80.0959C78.5539 80.0255 78.5838 79.9445 78.6542 79.9111Z" fill="#4D3615"/>
<path d="M76.6529 82.7274C77.2972 82.5901 77.9361 82.5091 78.5821 82.444C79.2263 82.3789 79.8723 82.3401 80.5183 82.319C81.8103 82.2785 83.1058 82.3102 84.3925 82.4123C86.9694 82.6112 89.5182 83.0882 92.0089 83.7624C94.4943 84.4559 96.9268 85.343 99.2609 86.4396C101.598 87.5274 103.851 88.793 106.006 90.2082C103.839 88.8124 101.577 87.5679 99.2327 86.5012C96.8916 85.4275 94.4573 84.5633 91.9737 83.8944C89.4847 83.2449 86.9413 82.7925 84.3767 82.6182C83.0952 82.5267 81.8085 82.5074 80.5254 82.5584C79.8846 82.5848 79.2439 82.6288 78.6067 82.6992C77.9713 82.7696 77.3306 82.8576 76.7163 82.9949L76.711 82.9967C76.6371 83.0125 76.5632 82.9668 76.5473 82.8928C76.5315 82.8189 76.5772 82.7432 76.6529 82.7274Z" fill="#4D3615"/>
<path d="M48.6113 76.8729C48.1378 76.4558 47.6203 76.0685 47.0993 75.7006C46.5765 75.331 46.0361 74.9825 45.4869 74.6498C44.3886 73.9845 43.2532 73.3807 42.088 72.8403C39.7575 71.7525 37.3126 70.9199 34.8201 70.2845C32.3224 69.6685 29.7737 69.2495 27.2055 69.0577C24.6374 68.857 22.0552 68.8517 19.4836 69.0277C22.0535 68.8306 24.6374 68.8112 27.2091 68.989C29.7825 69.158 32.34 69.5558 34.8518 70.1525C37.3583 70.7668 39.8209 71.5818 42.1725 72.6537C43.35 73.1871 44.4977 73.7838 45.6101 74.4439C46.1664 74.7748 46.7138 75.1198 47.2454 75.4894C47.7787 75.8591 48.2979 76.2393 48.7961 76.6705C48.8542 76.7198 48.8594 76.8078 48.8102 76.8641C48.7609 76.9222 48.6729 76.9275 48.6165 76.8782H48.6148L48.6113 76.8729Z" fill="#4D3615"/>
<path d="M46.5853 79.2158C46.015 78.9465 45.4095 78.7194 44.8057 78.5099C44.2002 78.3005 43.5859 78.1157 42.9646 77.9484C41.7254 77.614 40.4668 77.35 39.196 77.1563C36.656 76.7603 34.0756 76.6406 31.5057 76.7233C28.9358 76.8272 26.3712 77.1335 23.8506 77.6633C21.3283 78.1861 18.8464 78.8989 16.4261 79.7826C18.8393 78.8778 21.3159 78.1421 23.8365 77.5964C26.3554 77.0437 28.9235 76.7145 31.5004 76.586C34.0791 76.4787 36.6701 76.5755 39.2277 76.9522C40.5073 77.137 41.7764 77.3905 43.0279 77.7161C43.6546 77.878 44.2759 78.0593 44.8885 78.2653C45.5028 78.4712 46.1083 78.693 46.7067 78.9676C46.7754 78.9993 46.8053 79.0802 46.7736 79.1507C46.7419 79.2211 46.661 79.2492 46.5906 79.2175H46.5888L46.5853 79.2158Z" fill="#4D3615"/>
<path d="M48.6447 82.0533C48.0286 81.9177 47.3897 81.8279 46.7543 81.7575C46.1171 81.6871 45.4764 81.6431 44.8357 81.6167C43.5525 81.5657 42.2675 81.585 40.9844 81.6766C38.4197 81.8508 35.8763 82.3032 33.3874 82.9527C30.9037 83.6216 28.4694 84.4858 26.1283 85.5596C23.7837 86.6262 21.5201 87.8689 19.3551 89.2665C21.5096 87.8513 23.7626 86.5858 26.1002 85.498C28.4342 84.4014 30.8668 83.5142 33.3522 82.8207C35.8428 82.1465 38.3916 81.6695 40.9685 81.4706C42.257 81.3685 43.5507 81.3351 44.8427 81.3773C45.4887 81.3967 46.1347 81.4372 46.7789 81.5023C47.4249 81.5674 48.0639 81.6502 48.7081 81.7857C48.782 81.8015 48.8295 81.8737 48.8137 81.9494C48.7979 82.0233 48.7257 82.0709 48.65 82.055H48.6482L48.6447 82.0533Z" fill="#4D3615"/>
<path d="M62.4869 80.4409V81.673C62.4869 81.673 60.5507 84.8413 52.8058 85.3694C45.061 85.8975 43.1248 82.025 43.1248 82.025" stroke="black" stroke-width="0.352039" stroke-miterlimit="10"/>
<path d="M62.4869 80.4409V81.673C62.4869 81.673 64.4231 84.8413 72.1679 85.3694C79.9128 85.8975 81.849 82.025 81.849 82.025" stroke="black" stroke-width="0.352039" stroke-miterlimit="10"/>
<path d="M57.5055 75.1673C57.5055 75.1673 62.4675 72.5305 67.1532 75.1673C68.5314 76.5385 64.1221 76.7497 62.4675 79.9128C61.6402 78.2265 55.1627 76.0122 57.5055 75.1673Z" fill="#7EA200"/>
<mask id="mask3_2_102" style="mask-type:alpha" maskUnits="userSpaceOnUse" x="56" y="73" width="12" height="7">
<path d="M57.5055 75.1673C57.5055 75.1673 62.4675 72.5305 67.1532 75.1673C68.5314 76.5385 64.1221 76.7497 62.4675 79.9128C61.6402 78.2265 55.1627 76.0122 57.5055 75.1673Z" fill="#7EA200"/>
</mask>
<g mask="url(#mask3_2_102)">
<path d="M57.3823 76.9205C57.3823 76.9205 63.895 78.6807 66.3593 77.4485C68.8236 76.2164 62.6629 80.9689 62.6629 80.9689L58.7905 78.6807L57.3823 76.9205Z" fill="#777F00" stroke="#777F00" stroke-width="0.704078" stroke-miterlimit="10"/>
<path d="M57.5055 75.1673C57.5055 75.1673 62.4675 72.5305 67.1532 75.1673C68.5314 76.5385 64.1221 76.7497 62.4675 79.9128C61.6402 78.2265 55.1627 76.0122 57.5055 75.1673Z" stroke="#657F00" stroke-width="0.704078" stroke-miterlimit="10"/>
</g>
<path d="M57.8224 73.136C57.8224 73.136 63.279 71.7279 66.6234 73.136" stroke="#553600" stroke-width="1.76019" stroke-miterlimit="10"/>
<path d="M77.4486 81.937C83.6216 81.937 88.6258 76.9328 88.6258 70.7598C88.6258 64.5868 83.6216 59.5826 77.4486 59.5826C71.2755 59.5826 66.2713 64.5868 66.2713 70.7598C66.2713 76.9328 71.2755 81.937 77.4486 81.937Z" stroke="#553600" stroke-width="0.880097" stroke-miterlimit="10"/>
<path d="M46.9972 83.1692C53.1702 83.1692 58.1744 78.1649 58.1744 71.9919C58.1744 65.8189 53.1702 60.8147 46.9972 60.8147C40.8242 60.8147 35.82 65.8189 35.82 71.9919C35.82 78.1649 40.8242 83.1692 46.9972 83.1692Z" stroke="#553600" stroke-width="0.880097" stroke-miterlimit="10"/>
<path d="M77.5366 30.8914V36.172" stroke="#FF9A15" stroke-width="1.58417" stroke-miterlimit="10"/>
<path d="M52.5418 42.6407V29.4833H74.1922V42.6407C74.1922 42.6407 66.1974 48.636 52.5418 42.6407Z" fill="#1A1A1A"/>
<path d="M66.9754 35.2919L66.4051 45.1982L70.538 44.3551L70.6718 33.5317L66.9754 35.2919Z" fill="#2A2C44"/>
<path d="M52.5418 42.6407V29.4833H74.1922V42.6407C74.1922 42.6407 66.1974 48.636 52.5418 42.6407Z" stroke="black" stroke-width="0.880097" stroke-miterlimit="10"/>
<path d="M63.7701 39.0112L46.6012 30.1522L62.8953 21.7455L80.0642 30.6028L63.7701 39.0112Z" fill="#1A1A1A" stroke="black" stroke-width="0.176019" stroke-miterlimit="10"/>
<path d="M72.168 109.836C72.168 109.836 72.52 110.716 72.168 111.772" stroke="#C19048" stroke-width="1.40816" stroke-miterlimit="10" stroke-linecap="round"/>
<path d="M67.9435 101.915C67.9435 101.915 71.0978 103.746 71.8159 107.196" stroke="#C19048" stroke-width="1.40816" stroke-miterlimit="10" stroke-linecap="round"/>
<path d="M51.5737 29.5712L62.3109 23.7626" stroke="#2A2C44" stroke-width="1.40816" stroke-miterlimit="10" stroke-linecap="round" stroke-linejoin="round"/>
</svg>
