<?xml version="1.0" encoding="utf-8"?>
<!-- Generator: Adobe Illustrator 23.1.0, SVG Export Plug-In . SVG Version: 6.00 Build 0)  -->
<svg version="1.1" xmlns="http://www.w3.org/2000/svg" xmlns:xlink="http://www.w3.org/1999/xlink" x="0px" y="0px"
	 viewBox="0 0 1000 1000" style="enable-background:new 0 0 1000 1000;" xml:space="preserve">
<style type="text/css">
	.st0{fill:#BED966;stroke:#BEB455;stroke-width:12;stroke-miterlimit:10;}
	.st1{fill:#8B4B00;stroke:#7A2B00;stroke-width:3;stroke-miterlimit:10;}
	.st2{fill:none;stroke:#7A2B00;stroke-width:6;stroke-miterlimit:10;}
	.st3{fill:none;stroke:#553600;stroke-width:10;stroke-miterlimit:10;}
	.st4{fill:#BED966;stroke:#777F00;stroke-width:4;stroke-miterlimit:10;}
	.st5{clip-path:url(#XMLID_7_);fill:#BED966;stroke:#BEB455;stroke-width:4;stroke-miterlimit:10;}
	.st6{clip-path:url(#XMLID_7_);fill:#BED966;stroke:#8B4B00;stroke-width:13;stroke-miterlimit:10;}
	.st7{clip-path:url(#XMLID_7_);fill:#BED966;stroke:#8B4B00;stroke-width:40;stroke-miterlimit:10;}
	.st8{clip-path:url(#XMLID_7_);fill:#BED966;stroke:#8B4B00;stroke-width:30;stroke-miterlimit:10;}
	.st9{clip-path:url(#XMLID_7_);fill:#BED966;stroke:#8B4B00;stroke-width:20;stroke-miterlimit:10;}
	.st10{opacity:0.39;fill:#C2885A;stroke:#BEB455;stroke-width:0.25;stroke-miterlimit:10;}
	.st11{fill:#5F0900;stroke:#CEA13C;stroke-width:8;stroke-linecap:round;stroke-miterlimit:10;}
	.st12{clip-path:url(#XMLID_8_);fill:#C2CC5A;stroke:#C2CC5A;stroke-width:11;stroke-miterlimit:10;}
	.st13{fill:none;stroke:#000000;stroke-width:20;stroke-miterlimit:10;}
	.st14{clip-path:url(#XMLID_9_);fill:#8B4B00;stroke:#7A2B00;stroke-width:7;stroke-miterlimit:10;}
	.st15{clip-path:url(#XMLID_9_);fill:#7A2B00;stroke:#7A2B00;stroke-width:7;stroke-miterlimit:10;}
	.st16{fill:#FFF0FF;}
	.st17{fill:#7CA335;}
	.st18{fill:#001700;}
	.st19{fill:none;stroke:#000000;stroke-width:3;stroke-miterlimit:10;}
	.st20{fill:#FFFFFF;}
	.st21{fill:#4D3615;}
	.st22{fill:none;stroke:#000000;stroke-width:2;stroke-miterlimit:10;}
	.st23{clip-path:url(#XMLID_10_);fill:#777F00;stroke:#777F00;stroke-width:4;stroke-miterlimit:10;}
	.st24{fill:none;stroke:#553600;stroke-width:5;stroke-miterlimit:10;}
	.st25{fill:#1A1A1A;stroke:#FF9A15;stroke-width:9;stroke-miterlimit:10;}
	.st26{clip-path:url(#XMLID_11_);fill:#2A2C44;}
	.st27{fill:#1A1A1A;stroke:#000000;stroke-miterlimit:10;}
	.st28{fill:none;stroke:#C19048;stroke-width:8;stroke-linecap:round;stroke-miterlimit:10;}
	.st29{fill:#2A2C44;stroke:#2A2C44;stroke-width:8;stroke-linecap:round;stroke-linejoin:round;stroke-miterlimit:10;}
</style>
<g id="Слой_4">
	<path class="st0" d="M378.08,259.02c0,0,127.17-85.46,153.49-86.02c26.33-0.56-28.59,169-28.59,169l-89.14,0.28L378.08,259.02z"/>
</g>
<g id="Слой_5">
	<path class="st0" d="M334.38,259.02c0,0-127.17-85.46-153.49-86.02c-26.33-0.56,28.59,169,28.59,169l89.14,0.28L334.38,259.02z"/>
</g>
<g id="Слой_6">
	<path class="st1" d="M421,268.5c0,0,48-52,66-42s5,71-15,86S421,268.5,421,268.5z"/>
</g>
<g id="Слой_7">
	<path class="st1" d="M290.96,268.73c0,0-48-52-66-42s-5,71,15,86S290.96,268.73,290.96,268.73z"/>
</g>
<g id="Слой_14">
	<path class="st2" d="M570.85,741.59"/>
	<path class="st3" d="M512,556"/>
	<path class="st4" d="M574,617"/>
	<g>
		<defs>
			<path id="XMLID_1_" d="M496,617c0,0,28.89,104.71,115.5,155.81c15.31,9.03,32.42,16.39,51.5,21.19c127,32,261-52,295-134
				s15-187-32-167s9,96-55,158s-165,101-238,54c-23.35-17.88-42.84-37.22-59-56.52c-28.14-33.6-46.2-67.08-57-92.48
				C500,516,496,617,496,617z"/>
		</defs>
		<use xlink:href="#XMLID_1_"  style="overflow:visible;fill:#BED966;"/>
		<clipPath id="XMLID_7_">
			<use xlink:href="#XMLID_1_"  style="overflow:visible;"/>
		</clipPath>
		<path class="st5" d="M567.78,640.85"/>
		<path class="st6" d="M608.04,770.71"/>
		<path class="st7" d="M592,826"/>
		<path class="st8" d="M617,797"/>
		<path class="st9" d="M554,779"/>
		<path class="st9" d="M568,773c0,0-20-94,75-140"/>
		<path class="st9" d="M617,797"/>
		<path class="st9" d="M618,792c0,0-30-70,64-120"/>
		<path class="st9" d="M708,812c0,0-66-17-8-139"/>
		<path class="st9" d="M789,806c0,0-65-10-58-154"/>
		<path class="st9" d="M850,786c0,0-81-19-53-171"/>
		<path class="st9" d="M925,751"/>
		<path class="st9" d="M925,751c0,0-105-5-77-145"/>
		<use xlink:href="#XMLID_1_"  style="overflow:visible;fill:none;stroke:#BEB455;stroke-width:4;stroke-miterlimit:10;"/>
	</g>
	<path class="st3" d="M1257,547"/>
	<path class="st2" d="M567.78,738.56"/>
</g>
<g id="Слой_20">
	<path class="st10" d="M556.57,626c0,0,21.39,26.29,29.91,36.64s23.88,24.13,29.2,28.24C621,695,595,749,624.89,780.02
		c3.8,3.95-71.39-41-86.64-77.01C523,667,541,630,541,630L556.57,626"/>
	<path class="st11" d="M386.3,571.77c0,0,17.57,9.81,30.58,36.04"/>
	<path class="st11" d="M421,618c0,0,3,9,0,15"/>
</g>
<g id="Слой_15">
</g>
<g id="Слой_2">
	<g>
		<defs>
			<path id="XMLID_3_" d="M366,206c0,0,125-20,177,280c35,179-13,316-164,326c-165-3-251-126-209-344C238,250,286,206,366,206z"/>
		</defs>
		<use xlink:href="#XMLID_3_"  style="overflow:visible;fill:#BED966;"/>
		<clipPath id="XMLID_8_">
			<use xlink:href="#XMLID_3_"  style="overflow:visible;"/>
		</clipPath>
		<path class="st12" d="M193.5,354.5c0,0,5,319,63,384s167,85,214,73s-34,63-34,63l-315-50l-55-152c0,0-14-142-13-146s32-96,32-96
			l43-92L193.5,354.5z"/>
		<use xlink:href="#XMLID_3_"  style="overflow:visible;fill:none;stroke:#BEB455;stroke-width:11;stroke-miterlimit:10;"/>
	</g>
	<path class="st13" d="M445,870"/>
</g>
<g id="Слой_3">
	<g>
		<defs>
			<circle id="XMLID_2_" cx="353.5" cy="633.5" r="86"/>
		</defs>
		<use xlink:href="#XMLID_2_"  style="overflow:visible;fill:#8B4B00;"/>
		<clipPath id="XMLID_9_">
			<use xlink:href="#XMLID_2_"  style="overflow:visible;"/>
		</clipPath>
		<path class="st14" d="M360.5,540.5"/>
		<path class="st15" d="M366.5,543.5c0,0-90,28-84,147c4.07,80.67-54-135-54-135l123-37L366.5,543.5z"/>
		<use xlink:href="#XMLID_2_"  style="overflow:visible;fill:none;stroke:#7A2B00;stroke-width:7;stroke-miterlimit:10;"/>
	</g>
</g>
<g id="Слой_9">
	<path class="st16" d="M382.95,409.63c0,0,39.59-80.23,106.29-16.06C489.25,393.57,430.06,387.93,382.95,409.63z"/>
</g>
<g id="Слой_10">
	<path class="st17" d="M457.91,371.73c-0.46,0-0.91-0.06-1.36-0.21c-1.93-0.66-3.74-1.34-5.71-1.9c-2.11-0.6-4.29-0.84-6.39-1.45
		c-0.39-0.11-0.74-0.26-1.06-0.43c-6.34,0.28-12.85,1.86-18.63,3.48c-6.23,1.74-11.63,6.14-17.72,8.1c-0.67,1.5-1.03,3.07-1.03,4.69
		c0,5.65,4.37,10.68,11.16,13.98c0.07-0.03,0.14-0.05,0.21-0.08c1-0.36,1.97-0.49,3.04-0.62c0.35-0.04,0.71-0.01,1.06,0.07
		c2.11-1.21,4.47-1.93,6.97-1.8c0.9,0.04,1.71,0.3,2.42,0.7c4.26-0.55,8.6-0.75,12.88-1.46c5.95-0.99,12.25-2.03,18.4-1.98
		c2.45-2.61,3.87-5.61,3.87-8.82C466,379.25,462.92,374.94,457.91,371.73z"/>
	<path class="st18" d="M428.85,395.93c1.6-0.33,3.23-0.61,4.85-0.93c3.7-0.74,7.2-1.98,11.01-2.08c0.51-0.01,0.97,0.04,1.4,0.15
		c3.01-2.55,4.89-6.11,4.89-10.06c0-7.73-7.16-14-16-14s-16,6.27-16,14C419,388.83,423.07,393.82,428.85,395.93z"/>
</g>
<g id="Слой_8">
	<path class="st19" d="M382.54,409.08c0,0,39.59-80.23,106.29-16.06C488.83,393.03,429.64,387.39,382.54,409.08z"/>
	<path class="st16" d="M325.05,409.63c0,0-39.59-80.23-106.29-16.06C218.75,393.57,277.94,387.93,325.05,409.63z"/>
	<path class="st17" d="M250.09,371.73c0.46,0,0.91-0.06,1.36-0.21c1.93-0.66,3.74-1.34,5.71-1.9c2.11-0.6,4.29-0.84,6.39-1.45
		c0.39-0.11,0.74-0.26,1.06-0.43c6.34,0.28,12.85,1.86,18.63,3.48c6.23,1.74,11.63,6.14,17.72,8.1c0.67,1.5,1.03,3.07,1.03,4.69
		c0,5.65-4.37,10.68-11.16,13.98c-0.07-0.03-0.14-0.05-0.21-0.08c-1-0.36-1.97-0.49-3.04-0.62c-0.35-0.04-0.71-0.01-1.06,0.07
		c-2.11-1.21-4.47-1.93-6.97-1.8c-0.9,0.04-1.71,0.3-2.42,0.7c-4.26-0.55-8.6-0.75-12.88-1.46c-5.95-0.99-12.25-2.03-18.4-1.98
		c-2.45-2.61-3.87-5.61-3.87-8.82C242,379.25,245.08,374.94,250.09,371.73z"/>
	<path class="st18" d="M272,369c-8.84,0-16,6.27-16,14c0,4.65,2.6,8.76,6.6,11.31c0.77-0.16,1.58-0.19,2.39-0.08
		c3.46,0.48,6.86,1.19,10.37,1.25c0.92,0.01,1.7,0.23,2.35,0.59c6.01-2.01,10.29-7.1,10.29-13.07C288,375.27,280.84,369,272,369z"/>
	<path class="st19" d="M325.46,409.08c0,0-39.59-80.23-106.29-16.06C219.17,393.03,278.36,387.39,325.46,409.08z"/>
</g>
<g id="Слой_19">
	<g>
		<path class="st20" d="M447.34,381.36c1.03-1.13,2.12-1.8,3.24-2.33c1.12-0.51,2.26-0.84,3.43-1c1.17-0.17,2.36-0.17,3.57,0.01
			c1.22,0.2,2.46,0.54,3.76,1.35c0.69,0.43,0.9,1.33,0.47,2.01c-0.04,0.07-0.1,0.14-0.15,0.21c-1.03,1.14-2.12,1.82-3.24,2.35
			c-1.12,0.51-2.26,0.84-3.43,1.01c-1.17,0.17-2.36,0.18-3.57,0c-1.22-0.19-2.46-0.53-3.76-1.33c-0.7-0.43-0.92-1.35-0.49-2.05
			C447.22,381.51,447.28,381.43,447.34,381.36z"/>
	</g>
	<g>
		<path class="st20" d="M288.21,388.62c1.03-1.13,2.12-1.8,3.24-2.33c1.12-0.51,2.26-0.84,3.43-1c1.17-0.17,2.36-0.17,3.57,0.01
			c1.22,0.2,2.46,0.54,3.76,1.35c0.69,0.43,0.9,1.33,0.47,2.01c-0.04,0.07-0.1,0.14-0.15,0.21c-1.03,1.14-2.12,1.82-3.24,2.35
			c-1.12,0.51-2.26,0.84-3.43,1.01c-1.17,0.17-2.36,0.18-3.57,0c-1.22-0.19-2.46-0.53-3.76-1.33c-0.7-0.43-0.92-1.35-0.49-2.05
			C288.09,388.77,288.15,388.69,288.21,388.62z"/>
	</g>
</g>
<g id="Слой_18">
	<g>
		<path class="st21" d="M434.97,440.92c2.83-2.45,5.78-4.61,8.81-6.71c3.02-2.1,6.13-4.06,9.29-5.94
			c6.32-3.75,12.84-7.15,19.53-10.17c13.36-6.09,27.35-10.72,41.59-14.21c14.27-3.38,28.8-5.64,43.42-6.61
			c14.62-1.01,29.3-0.91,43.89,0.22c-14.61-0.99-29.28-0.96-43.87,0.17c-14.59,1.09-29.07,3.48-43.26,6.97
			c-14.16,3.61-28.05,8.34-41.29,14.52c-6.62,3.07-13.08,6.5-19.31,10.28c-3.12,1.89-6.18,3.87-9.16,5.97
			c-2.97,2.09-5.91,4.3-8.59,6.66L436,442.1c-0.32,0.29-0.82,0.25-1.1-0.07C434.61,441.71,434.64,441.21,434.97,440.92
			L434.97,440.92z"/>
	</g>
	<g>
		<path class="st21" d="M446.85,453.99c3.4-1.56,6.83-2.82,10.33-3.99c3.49-1.17,7.02-2.2,10.57-3.12
			c7.11-1.85,14.32-3.29,21.59-4.34c14.53-2.13,29.25-2.68,43.9-2.08c14.64,0.72,29.23,2.59,43.54,5.74
			c14.32,3.1,28.39,7.28,42.1,12.42c-13.75-5.02-27.86-9.07-42.18-12.04c-14.32-3.01-28.89-4.75-43.49-5.34
			c-14.6-0.48-29.26,0.21-43.69,2.46c-7.22,1.1-14.37,2.61-21.41,4.5c-3.52,0.95-7.01,2-10.46,3.19c-3.43,1.18-6.87,2.48-10.11,4.01
			l-0.03,0.01c-0.39,0.18-0.86,0.02-1.04-0.37C446.28,454.64,446.45,454.18,446.85,453.99L446.85,453.99z"/>
	</g>
	<g>
		<path class="st21" d="M435.48,469.99c3.66-0.78,7.29-1.24,10.96-1.61c3.66-0.37,7.33-0.59,11-0.71c7.34-0.23,14.7-0.05,22.01,0.53
			c14.64,1.13,29.12,3.84,43.27,7.67c14.12,3.94,27.94,8.98,41.2,15.21c13.28,6.18,26.08,13.37,38.32,21.41
			c-12.31-7.93-25.16-15-38.48-21.06c-13.3-6.1-27.13-11.01-41.24-14.81c-14.14-3.69-28.59-6.26-43.16-7.25
			c-7.28-0.52-14.59-0.63-21.88-0.34c-3.64,0.15-7.28,0.4-10.9,0.8c-3.61,0.4-7.25,0.9-10.74,1.68l-0.03,0.01
			c-0.42,0.09-0.84-0.17-0.93-0.59S435.05,470.08,435.48,469.99L435.48,469.99z"/>
	</g>
	<g>
		<path class="st21" d="M276.17,436.73c-2.69-2.37-5.63-4.57-8.59-6.66c-2.97-2.1-6.04-4.08-9.16-5.97
			c-6.24-3.78-12.69-7.21-19.31-10.28c-13.24-6.18-27.13-10.91-41.29-14.52c-14.19-3.5-28.67-5.88-43.26-6.97
			c-14.59-1.14-29.26-1.17-43.87-0.17c14.6-1.12,29.28-1.23,43.89-0.22c14.62,0.96,29.15,3.22,43.42,6.61
			c14.24,3.49,28.23,8.12,41.59,14.21c6.69,3.03,13.21,6.42,19.53,10.17c3.16,1.88,6.27,3.84,9.29,5.94
			c3.03,2.1,5.98,4.26,8.81,6.71c0.33,0.28,0.36,0.78,0.08,1.1c-0.28,0.33-0.78,0.36-1.1,0.08l-0.01,0L276.17,436.73z"/>
	</g>
	<g>
		<path class="st21" d="M264.66,450.04c-3.24-1.53-6.68-2.82-10.11-4.01c-3.44-1.19-6.93-2.24-10.46-3.19
			c-7.04-1.9-14.19-3.4-21.41-4.5c-14.43-2.25-29.09-2.93-43.69-2.46c-14.6,0.59-29.17,2.33-43.49,5.34
			c-14.33,2.97-28.43,7.02-42.18,12.04c13.71-5.14,27.78-9.32,42.1-12.42c14.31-3.14,28.9-5.01,43.54-5.74
			c14.65-0.61,29.37-0.06,43.9,2.08c7.27,1.05,14.48,2.49,21.59,4.34c3.56,0.92,7.09,1.95,10.57,3.12
			c3.49,1.17,6.93,2.43,10.33,3.99c0.39,0.18,0.56,0.64,0.38,1.04s-0.64,0.56-1.04,0.38l-0.01,0L264.66,450.04z"/>
	</g>
	<g>
		<path class="st21" d="M276.36,466.16c-3.5-0.77-7.13-1.28-10.74-1.68c-3.62-0.4-7.26-0.65-10.9-0.8
			c-7.29-0.29-14.59-0.18-21.88,0.34c-14.57,0.99-29.02,3.56-43.16,7.25c-14.11,3.8-27.94,8.71-41.24,14.81
			c-13.32,6.06-26.18,13.12-38.48,21.06c12.24-8.04,25.04-15.23,38.32-21.41c13.26-6.23,27.08-11.27,41.2-15.21
			c14.15-3.83,28.63-6.54,43.27-7.67c7.32-0.58,14.67-0.77,22.01-0.53c3.67,0.11,7.34,0.34,11,0.71c3.67,0.37,7.3,0.84,10.96,1.61
			c0.42,0.09,0.69,0.5,0.6,0.93c-0.09,0.42-0.5,0.69-0.93,0.6l-0.01,0L276.36,466.16z"/>
	</g>
</g>
<g id="Слой_11">
	<path class="st22" d="M355,457v7c0,0-11,18-55,21s-55-19-55-19"/>
	<path class="st22" d="M355,457v7c0,0,11,18,55,21s55-19,55-19"/>
</g>
<g id="Слой_12">
	<g>
		<defs>
			<path id="XMLID_4_" d="M326.7,427.04c0,0,28.19-14.98,54.81,0c7.83,7.79-17.22,8.99-26.62,26.96
				C350.19,444.42,313.39,431.84,326.7,427.04z"/>
		</defs>
		<use xlink:href="#XMLID_4_"  style="overflow:visible;fill:#7EA200;"/>
		<clipPath id="XMLID_10_">
			<use xlink:href="#XMLID_4_"  style="overflow:visible;"/>
		</clipPath>
		<path class="st23" d="M326,437c0,0,37,10,51,3s-21,20-21,20l-22-13L326,437z"/>
		<use xlink:href="#XMLID_4_"  style="overflow:visible;fill:none;stroke:#657F00;stroke-width:4;stroke-miterlimit:10;"/>
	</g>
</g>
<g id="Слой_13">
	<path class="st3" d="M328.5,415.5c0,0,31-8,50,0"/>
	<circle class="st24" cx="440" cy="402" r="63.5"/>
	<circle class="st24" cx="267" cy="409" r="63.5"/>
</g>
<g id="Слой_17">
	<line class="st25" x1="440.5" y1="175.5" x2="440.5" y2="205.5"/>
</g>
<g id="Слой_16">
	<g>
		<defs>
			<path id="XMLID_5_" d="M298.5,242.25V167.5h123v74.75C421.5,242.25,376.08,276.31,298.5,242.25z"/>
		</defs>
		<use xlink:href="#XMLID_5_"  style="overflow:visible;fill:#1A1A1A;"/>
		<clipPath id="XMLID_11_">
			<use xlink:href="#XMLID_5_"  style="overflow:visible;"/>
		</clipPath>
		<polygon class="st26" points="380.5,200.5 377.26,256.78 400.74,251.99 401.5,190.5 		"/>
		<use xlink:href="#XMLID_5_"  style="overflow:visible;fill:none;stroke:#000000;stroke-width:5;stroke-miterlimit:10;"/>
	</g>
	<g>
		<polygon class="st27" points="362.29,221.63 264.75,171.3 357.32,123.54 454.86,173.86 		"/>
	</g>
</g>
<g id="Слой_22">
	<path class="st28" d="M410,624c0,0,2,5,0,11"/>
	<path class="st28" d="M386,579c0,0,17.92,10.4,22,30"/>
</g>
<g id="Слой_21">
	<line class="st29" x1="293" y1="168" x2="354" y2="135"/>
</g>
</svg>
